<?xml version="1.0" ?><svg version="1.1" viewBox="0 0 16 16" xmlns="http://www.w3.org/2000/svg" xmlns:xlink="http://www.w3.org/1999/xlink"><defs><path d="M0,0h5v2h-5Z" id="path-1"/></defs><g fill="#000000"><use transform="translate(11, 6)" xlink:href="#path-1"/><path d="M0,0h16v2h-16Z" transform="translate(0, 10)"/><path d="M0,0h12v2h-12Z" transform="translate(0, 14)"/><use transform="translate(11, 2)" xlink:href="#path-1"/></g><path d="M1,9h8c0.552246,0 1,-0.447754 1,-1v-7c0,-0.552246 -0.447754,-1 -1,-1h-8c-0.552246,0 -1,0.447754 -1,1v7c0,0.552246 0.447754,1 1,1Zm1,-7h6v5l-3,-3l-3,3v-5Z" fill="#000000"/></svg>